<svg xmlns="http://www.w3.org/2000/svg" viewBox="0 0 1440 320"><path fill="#7f544b" fill-opacity="1" d="M0,64L21.8,90.7C43.6,117,87,171,131,176C174.5,181,218,139,262,138.7C305.5,139,349,181,393,165.3C436.4,149,480,75,524,80C567.3,85,611,171,655,192C698.2,213,742,171,785,144C829.1,117,873,107,916,96C960,85,1004,75,1047,106.7C1090.9,139,1135,213,1178,213.3C1221.8,213,1265,139,1309,106.7C1352.7,75,1396,85,1418,90.7L1440,96L1440,0L1418.2,0C1396.4,0,1353,0,1309,0C1265.5,0,1222,0,1178,0C1134.5,0,1091,0,1047,0C1003.6,0,960,0,916,0C872.7,0,829,0,785,0C741.8,0,698,0,655,0C610.9,0,567,0,524,0C480,0,436,0,393,0C349.1,0,305,0,262,0C218.2,0,175,0,131,0C87.3,0,44,0,22,0L0,0Z"></path></svg>